<mxfile host="app.diagrams.net" modified="2024-06-09T08:46:07.126Z" agent="Mozilla/5.0 (Windows NT 10.0; Win64; x64) AppleWebKit/537.36 (KHTML, like Gecko) Chrome/125.0.0.0 Safari/537.36" etag="edpB9WIeV9xIapchmaKa" version="24.5.2" type="google">
  <diagram id="C5RBs43oDa-KdzZeNtuy" name="Page-1">
    <mxGraphModel grid="1" page="1" gridSize="5" guides="1" tooltips="1" connect="1" arrows="1" fold="1" pageScale="1" pageWidth="827" pageHeight="1169" math="0" shadow="0">
      <root>
        <mxCell id="WIyWlLk6GJQsqaUBKTNV-0" />
        <mxCell id="WIyWlLk6GJQsqaUBKTNV-1" parent="WIyWlLk6GJQsqaUBKTNV-0" />
        <mxCell id="ohN-Umk4_H5J4aMCXzdo-52" value="AddressBook" style="swimlane;fontStyle=0;align=center;verticalAlign=top;childLayout=stackLayout;horizontal=1;startSize=26;horizontalStack=0;resizeParent=1;resizeLast=0;collapsible=1;marginBottom=0;rounded=0;shadow=0;strokeWidth=1;labelBackgroundColor=none;" vertex="1" parent="WIyWlLk6GJQsqaUBKTNV-1">
          <mxGeometry x="1135" y="705" width="325" height="401" as="geometry">
            <mxRectangle x="340" y="380" width="170" height="26" as="alternateBounds" />
          </mxGeometry>
        </mxCell>
        <mxCell id="ohN-Umk4_H5J4aMCXzdo-53" value=" - data: dict&#xa;&#xa; - upcoming_birthdays: list&#xa;" style="text;align=left;verticalAlign=top;spacingLeft=4;spacingRight=4;overflow=hidden;rotatable=0;points=[[0,0.5],[1,0.5]];portConstraint=eastwest;labelBackgroundColor=none;" vertex="1" parent="ohN-Umk4_H5J4aMCXzdo-52">
          <mxGeometry y="26" width="325" height="44" as="geometry" />
        </mxCell>
        <mxCell id="ohN-Umk4_H5J4aMCXzdo-54" value="" style="line;html=1;strokeWidth=1;align=left;verticalAlign=middle;spacingTop=-1;spacingLeft=3;spacingRight=3;rotatable=0;labelPosition=right;points=[];portConstraint=eastwest;labelBackgroundColor=none;" vertex="1" parent="ohN-Umk4_H5J4aMCXzdo-52">
          <mxGeometry y="70" width="325" height="20" as="geometry" />
        </mxCell>
        <mxCell id="ohN-Umk4_H5J4aMCXzdo-48" value="&amp;nbsp; + __init__()" style="text;html=1;align=left;verticalAlign=middle;resizable=0;points=[];autosize=1;strokeColor=none;fillColor=none;labelBackgroundColor=none;" vertex="1" parent="ohN-Umk4_H5J4aMCXzdo-52">
          <mxGeometry y="90" width="325" height="30" as="geometry" />
        </mxCell>
        <mxCell id="zkfFHV4jXpPFQw0GAbJ--5" value="+ add_record(record: Record)" style="text;align=left;verticalAlign=top;spacingLeft=4;spacingRight=4;overflow=hidden;rotatable=0;points=[[0,0.5],[1,0.5]];portConstraint=eastwest;labelBackgroundColor=none;" vertex="1" parent="ohN-Umk4_H5J4aMCXzdo-52">
          <mxGeometry y="120" width="325" height="26" as="geometry" />
        </mxCell>
        <mxCell id="ohN-Umk4_H5J4aMCXzdo-36" value="&amp;nbsp;+ find(name: str): Record or None" style="text;html=1;align=left;verticalAlign=middle;resizable=0;points=[];autosize=1;strokeColor=none;fillColor=none;labelBackgroundColor=none;" vertex="1" parent="ohN-Umk4_H5J4aMCXzdo-52">
          <mxGeometry y="146" width="325" height="30" as="geometry" />
        </mxCell>
        <mxCell id="ohN-Umk4_H5J4aMCXzdo-37" value="&amp;nbsp;+ delete(name: str)" style="text;html=1;align=left;verticalAlign=middle;resizable=0;points=[];autosize=1;strokeColor=none;fillColor=none;labelBackgroundColor=none;" vertex="1" parent="ohN-Umk4_H5J4aMCXzdo-52">
          <mxGeometry y="176" width="325" height="30" as="geometry" />
        </mxCell>
        <mxCell id="ohN-Umk4_H5J4aMCXzdo-38" value="&amp;nbsp;+ string_to_date(date_string: str): date" style="text;html=1;align=left;verticalAlign=middle;resizable=0;points=[];autosize=1;strokeColor=none;fillColor=none;labelBackgroundColor=none;" vertex="1" parent="ohN-Umk4_H5J4aMCXzdo-52">
          <mxGeometry y="206" width="325" height="30" as="geometry" />
        </mxCell>
        <mxCell id="ohN-Umk4_H5J4aMCXzdo-42" value="&amp;nbsp;+ date_to_string(date: date): str" style="text;html=1;align=left;verticalAlign=middle;resizable=0;points=[];autosize=1;strokeColor=none;fillColor=none;labelBackgroundColor=none;" vertex="1" parent="ohN-Umk4_H5J4aMCXzdo-52">
          <mxGeometry y="236" width="325" height="30" as="geometry" />
        </mxCell>
        <mxCell id="ohN-Umk4_H5J4aMCXzdo-43" value="&amp;nbsp;+ prepare_user_list(user_data: list): list" style="text;html=1;align=left;verticalAlign=middle;resizable=0;points=[];autosize=1;strokeColor=none;fillColor=none;labelBackgroundColor=none;" vertex="1" parent="ohN-Umk4_H5J4aMCXzdo-52">
          <mxGeometry y="266" width="325" height="30" as="geometry" />
        </mxCell>
        <mxCell id="ohN-Umk4_H5J4aMCXzdo-44" value="&amp;nbsp;+ find_next_weekday(start_date: date, weekday: int): date" style="text;html=1;align=left;verticalAlign=middle;resizable=0;points=[];autosize=1;strokeColor=none;fillColor=none;labelBackgroundColor=none;" vertex="1" parent="ohN-Umk4_H5J4aMCXzdo-52">
          <mxGeometry y="296" width="325" height="30" as="geometry" />
        </mxCell>
        <mxCell id="ohN-Umk4_H5J4aMCXzdo-45" value="&amp;nbsp;+ adjust_for_weekend(birthday: date): date" style="text;html=1;align=left;verticalAlign=middle;resizable=0;points=[];autosize=1;strokeColor=none;fillColor=none;labelBackgroundColor=none;" vertex="1" parent="ohN-Umk4_H5J4aMCXzdo-52">
          <mxGeometry y="326" width="325" height="30" as="geometry" />
        </mxCell>
        <mxCell id="ohN-Umk4_H5J4aMCXzdo-46" value="&amp;nbsp;+ get_upcoming_birthdays(days: int = 7): list or str&lt;div style=&quot;padding: 0px; margin: 0px;&quot;&gt;&lt;br style=&quot;padding: 0px; margin: 0px;&quot;&gt;&lt;/div&gt;" style="text;html=1;align=left;verticalAlign=middle;resizable=0;points=[];autosize=1;strokeColor=none;fillColor=none;labelBackgroundColor=none;" vertex="1" parent="ohN-Umk4_H5J4aMCXzdo-52">
          <mxGeometry y="356" width="325" height="45" as="geometry" />
        </mxCell>
        <mxCell id="ohN-Umk4_H5J4aMCXzdo-122" style="rounded=0;orthogonalLoop=1;jettySize=auto;html=1;exitX=0.5;exitY=0;exitDx=0;exitDy=0;edgeStyle=elbowEdgeStyle;elbow=vertical;" edge="1" parent="WIyWlLk6GJQsqaUBKTNV-1">
          <mxGeometry relative="1" as="geometry">
            <mxPoint x="600" y="410" as="targetPoint" />
            <mxPoint x="910" y="560" as="sourcePoint" />
          </mxGeometry>
        </mxCell>
        <mxCell id="ohN-Umk4_H5J4aMCXzdo-55" value="Birthday" style="swimlane;fontStyle=0;align=center;verticalAlign=top;childLayout=stackLayout;horizontal=1;startSize=26;horizontalStack=0;resizeParent=1;resizeLast=0;collapsible=1;marginBottom=0;rounded=0;shadow=0;strokeWidth=1;labelBackgroundColor=none;" vertex="1" parent="WIyWlLk6GJQsqaUBKTNV-1">
          <mxGeometry x="855" y="565" width="120" height="55" as="geometry">
            <mxRectangle x="550" y="140" width="160" height="26" as="alternateBounds" />
          </mxGeometry>
        </mxCell>
        <mxCell id="ohN-Umk4_H5J4aMCXzdo-56" value="+ __init__(value: str)" style="text;align=left;verticalAlign=top;spacingLeft=4;spacingRight=4;overflow=hidden;rotatable=0;points=[[0,0.5],[1,0.5]];portConstraint=eastwest;labelBackgroundColor=none;" vertex="1" parent="ohN-Umk4_H5J4aMCXzdo-55">
          <mxGeometry y="26" width="120" height="29" as="geometry" />
        </mxCell>
        <mxCell id="ohN-Umk4_H5J4aMCXzdo-131" style="edgeStyle=orthogonalEdgeStyle;rounded=0;orthogonalLoop=1;jettySize=auto;html=1;" edge="1" parent="WIyWlLk6GJQsqaUBKTNV-1">
          <mxGeometry relative="1" as="geometry">
            <mxPoint x="600" y="410" as="targetPoint" />
            <mxPoint x="600" y="560" as="sourcePoint" />
          </mxGeometry>
        </mxCell>
        <mxCell id="ohN-Umk4_H5J4aMCXzdo-75" value="Phone" style="swimlane;fontStyle=0;align=center;verticalAlign=top;childLayout=stackLayout;horizontal=1;startSize=26;horizontalStack=0;resizeParent=1;resizeLast=0;collapsible=1;marginBottom=0;rounded=0;shadow=0;strokeWidth=1;labelBackgroundColor=none;" vertex="1" parent="WIyWlLk6GJQsqaUBKTNV-1">
          <mxGeometry x="502" y="565" width="200" height="86" as="geometry">
            <mxRectangle x="340" y="380" width="170" height="26" as="alternateBounds" />
          </mxGeometry>
        </mxCell>
        <mxCell id="ohN-Umk4_H5J4aMCXzdo-101" value="+ validate_phone(phone: str): bool" style="text;html=1;align=center;verticalAlign=middle;resizable=0;points=[];autosize=1;strokeColor=none;fillColor=none;labelBackgroundColor=none;" vertex="1" parent="ohN-Umk4_H5J4aMCXzdo-75">
          <mxGeometry y="26" width="200" height="30" as="geometry" />
        </mxCell>
        <mxCell id="ohN-Umk4_H5J4aMCXzdo-103" value="+ __init__(value: str)&amp;nbsp; &amp;nbsp; &amp;nbsp; &amp;nbsp; &amp;nbsp; &amp;nbsp; &amp;nbsp; &amp;nbsp; &amp;nbsp; &amp;nbsp; &amp;nbsp;&amp;nbsp;" style="text;html=1;align=center;verticalAlign=middle;resizable=0;points=[];autosize=1;strokeColor=none;fillColor=none;labelBackgroundColor=none;" vertex="1" parent="ohN-Umk4_H5J4aMCXzdo-75">
          <mxGeometry y="56" width="200" height="30" as="geometry" />
        </mxCell>
        <mxCell id="ohN-Umk4_H5J4aMCXzdo-123" style="rounded=0;orthogonalLoop=1;jettySize=auto;html=1;entryX=0.565;entryY=1.172;entryDx=0;entryDy=0;entryPerimeter=0;" edge="1" parent="WIyWlLk6GJQsqaUBKTNV-1" target="ohN-Umk4_H5J4aMCXzdo-56">
          <mxGeometry relative="1" as="geometry">
            <mxPoint x="930" y="675" as="targetPoint" />
            <mxPoint x="595" y="680" as="sourcePoint" />
            <Array as="points">
              <mxPoint x="923" y="680" />
            </Array>
          </mxGeometry>
        </mxCell>
        <mxCell id="ohN-Umk4_H5J4aMCXzdo-125" style="edgeStyle=orthogonalEdgeStyle;rounded=0;orthogonalLoop=1;jettySize=auto;html=1;exitX=0.5;exitY=0;exitDx=0;exitDy=0;" edge="1" parent="WIyWlLk6GJQsqaUBKTNV-1" source="ohN-Umk4_H5J4aMCXzdo-78">
          <mxGeometry relative="1" as="geometry">
            <mxPoint x="250" y="625" as="targetPoint" />
            <Array as="points">
              <mxPoint x="602" y="680" />
              <mxPoint x="250" y="680" />
            </Array>
          </mxGeometry>
        </mxCell>
        <mxCell id="ohN-Umk4_H5J4aMCXzdo-133" value="" style="edgeStyle=orthogonalEdgeStyle;rounded=0;orthogonalLoop=1;jettySize=auto;html=1;" edge="1" parent="WIyWlLk6GJQsqaUBKTNV-1" source="ohN-Umk4_H5J4aMCXzdo-78" target="ohN-Umk4_H5J4aMCXzdo-103">
          <mxGeometry relative="1" as="geometry">
            <Array as="points">
              <mxPoint x="602" y="680" />
              <mxPoint x="602" y="680" />
            </Array>
          </mxGeometry>
        </mxCell>
        <mxCell id="ohN-Umk4_H5J4aMCXzdo-134" value="" style="edgeStyle=orthogonalEdgeStyle;rounded=0;orthogonalLoop=1;jettySize=auto;html=1;" edge="1" parent="WIyWlLk6GJQsqaUBKTNV-1" source="ohN-Umk4_H5J4aMCXzdo-78" target="ohN-Umk4_H5J4aMCXzdo-103">
          <mxGeometry relative="1" as="geometry" />
        </mxCell>
        <mxCell id="ohN-Umk4_H5J4aMCXzdo-78" value="Record" style="swimlane;fontStyle=0;align=center;verticalAlign=top;childLayout=stackLayout;horizontal=1;startSize=26;horizontalStack=0;resizeParent=1;resizeLast=0;collapsible=1;marginBottom=0;rounded=0;shadow=0;strokeWidth=1;labelBackgroundColor=none;" vertex="1" parent="WIyWlLk6GJQsqaUBKTNV-1">
          <mxGeometry x="479.5" y="705" width="248" height="245" as="geometry">
            <mxRectangle x="340" y="380" width="170" height="26" as="alternateBounds" />
          </mxGeometry>
        </mxCell>
        <mxCell id="ohN-Umk4_H5J4aMCXzdo-79" value="- name: Name" style="text;align=left;verticalAlign=top;spacingLeft=4;spacingRight=4;overflow=hidden;rotatable=0;points=[[0,0.5],[1,0.5]];portConstraint=eastwest;labelBackgroundColor=none;" vertex="1" parent="ohN-Umk4_H5J4aMCXzdo-78">
          <mxGeometry y="26" width="248" height="29" as="geometry" />
        </mxCell>
        <mxCell id="ohN-Umk4_H5J4aMCXzdo-88" value="&amp;nbsp;- phones: list" style="text;html=1;align=left;verticalAlign=middle;resizable=0;points=[];autosize=1;strokeColor=none;fillColor=none;labelBackgroundColor=none;" vertex="1" parent="ohN-Umk4_H5J4aMCXzdo-78">
          <mxGeometry y="55" width="248" height="30" as="geometry" />
        </mxCell>
        <mxCell id="ohN-Umk4_H5J4aMCXzdo-91" value="- birthday: Birthday&amp;nbsp; &amp;nbsp; &amp;nbsp; &amp;nbsp; &amp;nbsp; &amp;nbsp; &amp;nbsp; &amp;nbsp; &amp;nbsp; &amp;nbsp; &amp;nbsp; &amp;nbsp; &amp;nbsp; &amp;nbsp; &amp;nbsp; &amp;nbsp; &amp;nbsp; &amp;nbsp; &amp;nbsp; &amp;nbsp;" style="text;html=1;align=center;verticalAlign=middle;resizable=0;points=[];autosize=1;strokeColor=none;fillColor=none;labelBackgroundColor=none;" vertex="1" parent="ohN-Umk4_H5J4aMCXzdo-78">
          <mxGeometry y="85" width="248" height="30" as="geometry" />
        </mxCell>
        <mxCell id="ohN-Umk4_H5J4aMCXzdo-80" value="" style="line;html=1;strokeWidth=1;align=left;verticalAlign=middle;spacingTop=-1;spacingLeft=3;spacingRight=3;rotatable=0;labelPosition=right;points=[];portConstraint=eastwest;labelBackgroundColor=none;" vertex="1" parent="ohN-Umk4_H5J4aMCXzdo-78">
          <mxGeometry y="115" width="248" height="5" as="geometry" />
        </mxCell>
        <mxCell id="ohN-Umk4_H5J4aMCXzdo-93" value="+__init__(name:str)&amp;nbsp; &amp;nbsp; &amp;nbsp; &amp;nbsp; &amp;nbsp; &amp;nbsp; &amp;nbsp; &amp;nbsp; &amp;nbsp; &amp;nbsp; &amp;nbsp; &amp;nbsp; &amp;nbsp; &amp;nbsp; &amp;nbsp; &amp;nbsp; &amp;nbsp; &amp;nbsp;" style="text;html=1;align=center;verticalAlign=middle;resizable=0;points=[];autosize=1;strokeColor=none;fillColor=none;labelBackgroundColor=none;" vertex="1" parent="ohN-Umk4_H5J4aMCXzdo-78">
          <mxGeometry y="120" width="248" height="30" as="geometry" />
        </mxCell>
        <mxCell id="ohN-Umk4_H5J4aMCXzdo-94" value="+add_phone(phone:str): Phone&amp;nbsp; &amp;nbsp; &amp;nbsp; &amp;nbsp; &amp;nbsp; &amp;nbsp; &amp;nbsp; &amp;nbsp; &amp;nbsp;" style="text;html=1;align=center;verticalAlign=middle;resizable=0;points=[];autosize=1;strokeColor=none;fillColor=none;labelBackgroundColor=none;" vertex="1" parent="ohN-Umk4_H5J4aMCXzdo-78">
          <mxGeometry y="150" width="248" height="30" as="geometry" />
        </mxCell>
        <mxCell id="ohN-Umk4_H5J4aMCXzdo-96" value="+__str__():str&amp;nbsp; &amp;nbsp; &amp;nbsp; &amp;nbsp; &amp;nbsp; &amp;nbsp; &amp;nbsp; &amp;nbsp; &amp;nbsp; &amp;nbsp; &amp;nbsp; &amp;nbsp; &amp;nbsp; &amp;nbsp; &amp;nbsp; &amp;nbsp; &amp;nbsp; &amp;nbsp; &amp;nbsp; &amp;nbsp; &amp;nbsp; &amp;nbsp; &amp;nbsp;" style="text;html=1;align=center;verticalAlign=middle;resizable=0;points=[];autosize=1;strokeColor=none;fillColor=none;labelBackgroundColor=none;" vertex="1" parent="ohN-Umk4_H5J4aMCXzdo-78">
          <mxGeometry y="180" width="248" height="30" as="geometry" />
        </mxCell>
        <mxCell id="ohN-Umk4_H5J4aMCXzdo-95" value="+add_birthday(birthday:str)&amp;nbsp; &amp;nbsp; &amp;nbsp; &amp;nbsp; &amp;nbsp; &amp;nbsp; &amp;nbsp; &amp;nbsp; &amp;nbsp; &amp;nbsp; &amp;nbsp; &amp;nbsp;&amp;nbsp;" style="text;html=1;align=center;verticalAlign=middle;resizable=0;points=[];autosize=1;strokeColor=none;fillColor=none;labelBackgroundColor=none;" vertex="1" parent="ohN-Umk4_H5J4aMCXzdo-78">
          <mxGeometry y="210" width="248" height="30" as="geometry" />
        </mxCell>
        <mxCell id="ohN-Umk4_H5J4aMCXzdo-116" style="rounded=0;orthogonalLoop=1;jettySize=auto;html=1;elbow=vertical;edgeStyle=elbowEdgeStyle;" edge="1" parent="WIyWlLk6GJQsqaUBKTNV-1" source="ohN-Umk4_H5J4aMCXzdo-82">
          <mxGeometry relative="1" as="geometry">
            <mxPoint x="600" y="410" as="targetPoint" />
            <Array as="points">
              <mxPoint x="585" y="485" />
              <mxPoint x="485" y="495" />
              <mxPoint x="600" y="420" />
              <mxPoint x="595" y="495" />
            </Array>
          </mxGeometry>
        </mxCell>
        <mxCell id="ohN-Umk4_H5J4aMCXzdo-82" value="Name" style="swimlane;fontStyle=0;align=center;verticalAlign=top;childLayout=stackLayout;horizontal=1;startSize=26;horizontalStack=0;resizeParent=1;resizeLast=0;collapsible=1;marginBottom=0;rounded=0;shadow=0;strokeWidth=1;labelBackgroundColor=none;" vertex="1" parent="WIyWlLk6GJQsqaUBKTNV-1">
          <mxGeometry x="180" y="565" width="185" height="55" as="geometry">
            <mxRectangle x="340" y="380" width="170" height="26" as="alternateBounds" />
          </mxGeometry>
        </mxCell>
        <mxCell id="ohN-Umk4_H5J4aMCXzdo-83" value=" + __init__(value: str)" style="text;align=left;verticalAlign=top;spacingLeft=4;spacingRight=4;overflow=hidden;rotatable=0;points=[[0,0.5],[1,0.5]];portConstraint=eastwest;labelBackgroundColor=none;" vertex="1" parent="ohN-Umk4_H5J4aMCXzdo-82">
          <mxGeometry y="26" width="185" height="26" as="geometry" />
        </mxCell>
        <mxCell id="ohN-Umk4_H5J4aMCXzdo-85" value="Field" style="swimlane;fontStyle=0;align=center;verticalAlign=top;childLayout=stackLayout;horizontal=1;startSize=26;horizontalStack=0;resizeParent=1;resizeLast=0;collapsible=1;marginBottom=0;rounded=0;shadow=0;strokeWidth=1;labelBackgroundColor=none;" vertex="1" parent="WIyWlLk6GJQsqaUBKTNV-1">
          <mxGeometry x="513" y="285" width="189" height="125" as="geometry">
            <mxRectangle x="340" y="380" width="170" height="26" as="alternateBounds" />
          </mxGeometry>
        </mxCell>
        <mxCell id="ohN-Umk4_H5J4aMCXzdo-86" value=" - value: str" style="text;align=left;verticalAlign=top;spacingLeft=4;spacingRight=4;overflow=hidden;rotatable=0;points=[[0,0.5],[1,0.5]];portConstraint=eastwest;labelBackgroundColor=none;" vertex="1" parent="ohN-Umk4_H5J4aMCXzdo-85">
          <mxGeometry y="26" width="189" height="26" as="geometry" />
        </mxCell>
        <mxCell id="ohN-Umk4_H5J4aMCXzdo-87" value="" style="line;html=1;strokeWidth=1;align=left;verticalAlign=middle;spacingTop=-1;spacingLeft=3;spacingRight=3;rotatable=0;labelPosition=right;points=[];portConstraint=eastwest;labelBackgroundColor=none;" vertex="1" parent="ohN-Umk4_H5J4aMCXzdo-85">
          <mxGeometry y="52" width="189" height="8" as="geometry" />
        </mxCell>
        <mxCell id="ohN-Umk4_H5J4aMCXzdo-105" value="+ __init__(value: str)&amp;nbsp; &amp;nbsp; &amp;nbsp; &amp;nbsp; &amp;nbsp; &amp;nbsp; &amp;nbsp; &amp;nbsp; &amp;nbsp;&amp;nbsp;" style="text;html=1;align=center;verticalAlign=middle;resizable=0;points=[];autosize=1;strokeColor=none;fillColor=none;labelBackgroundColor=none;" vertex="1" parent="ohN-Umk4_H5J4aMCXzdo-85">
          <mxGeometry y="60" width="189" height="30" as="geometry" />
        </mxCell>
        <mxCell id="ohN-Umk4_H5J4aMCXzdo-106" value="+ __str__(): str&amp;nbsp; &amp;nbsp; &amp;nbsp; &amp;nbsp; &amp;nbsp; &amp;nbsp; &amp;nbsp; &amp;nbsp; &amp;nbsp; &amp;nbsp; &amp;nbsp; &amp;nbsp; &amp;nbsp; &amp;nbsp;" style="text;html=1;align=center;verticalAlign=middle;resizable=0;points=[];autosize=1;strokeColor=none;fillColor=none;labelBackgroundColor=none;" vertex="1" parent="ohN-Umk4_H5J4aMCXzdo-85">
          <mxGeometry y="90" width="189" height="30" as="geometry" />
        </mxCell>
        <mxCell id="ohN-Umk4_H5J4aMCXzdo-124" style="rounded=0;orthogonalLoop=1;jettySize=auto;html=1;exitX=0.5;exitY=0;exitDx=0;exitDy=0;" edge="1" parent="WIyWlLk6GJQsqaUBKTNV-1">
          <mxGeometry relative="1" as="geometry">
            <mxPoint x="602.1" y="705" as="sourcePoint" />
            <mxPoint x="601.6" y="650" as="targetPoint" />
          </mxGeometry>
        </mxCell>
        <mxCell id="ohN-Umk4_H5J4aMCXzdo-132" style="edgeStyle=orthogonalEdgeStyle;rounded=0;orthogonalLoop=1;jettySize=auto;html=1;entryX=-0.006;entryY=0.64;entryDx=0;entryDy=0;entryPerimeter=0;" edge="1" parent="WIyWlLk6GJQsqaUBKTNV-1" source="ohN-Umk4_H5J4aMCXzdo-96" target="ohN-Umk4_H5J4aMCXzdo-37">
          <mxGeometry relative="1" as="geometry" />
        </mxCell>
      </root>
    </mxGraphModel>
  </diagram>
</mxfile>
